<svg width="260" height="260" viewBox="0 0 260 260" fill="none" xmlns="http://www.w3.org/2000/svg">
<path d="M200 0C215.913 0 231.174 6.32141 242.426 17.5736C253.679 28.8258 260 44.087 260 60V200C260 215.913 253.679 231.174 242.426 242.426C231.174 253.679 215.913 260 200 260H60C44.087 260 28.8258 253.679 17.5736 242.426C6.32141 231.174 0 215.913 0 200L0 60C0 44.087 6.32141 28.8258 17.5736 17.5736C28.8258 6.32141 44.087 0 60 0L200 0Z" fill="#CDECFE"/>
<path d="M30.088 29.021C30.317 28.082 30.494 27.523 30.494 27.498L31.459 27.828C31.459 27.853 31.281 28.361 31.078 29.25L30.088 29.021Z" fill="#87C0F4"/>
<path d="M16.579 221.483L16.554 220.468C17.5422 220.428 18.5263 220.318 19.499 220.139L19.677 221.129C18.6564 221.34 17.6189 221.459 16.577 221.484L16.579 221.483ZM13.456 221.283C12.4086 221.091 11.3969 220.74 10.456 220.242L10.938 219.354C11.7944 219.795 12.7092 220.111 13.655 220.294L13.455 221.283H13.456ZM22.749 220.395H22.649L22.369 219.43L22.446 219.404C23.303 219.134 24.174 218.827 25.188 218.439L25.569 219.379C24.815 219.679 23.814 220.067 22.751 220.395H22.749ZM7.92198 218.283C7.2007 217.506 6.60124 216.624 6.14398 215.668L7.05798 215.212C7.48095 216.081 8.02838 216.883 8.68298 217.594L7.92198 218.279V218.283ZM28.336 218.029L27.854 217.142C28.713 216.656 29.5437 216.122 30.342 215.542L30.951 216.355C30.1145 216.966 29.2412 217.526 28.336 218.03V218.029ZM33.313 214.373L32.603 213.637C33.339 212.928 34.012 212.222 34.66 211.479L35.421 212.14C34.7579 212.92 34.0549 213.666 33.315 214.374L33.313 214.373ZM37.35 209.751L36.539 209.142C37.019 208.486 37.65 207.615 38.265 206.679L39.103 207.238C38.55 208.079 37.955 208.964 37.351 209.751H37.35ZM40.778 204.673L39.916 204.14C40.381 203.396 40.881 202.573 41.49 201.551L42.353 202.059C41.83 202.959 41.33 203.793 40.779 204.674L40.778 204.673ZM43.878 199.442L42.99 198.935C43.324 198.355 43.652 197.762 43.999 197.135C44.1516 196.858 44.3066 196.579 44.464 196.296L45.352 196.778C44.823 197.757 44.352 198.632 43.88 199.443L43.878 199.442ZM46.823 194.136L45.936 193.654C46.392 192.792 46.879 191.895 47.383 190.987L48.271 191.469C47.777 192.359 47.29 193.255 46.824 194.135L46.823 194.136ZM49.692 188.803L48.805 188.321C49.013 187.928 49.2253 187.531 49.442 187.128C49.684 186.676 49.959 186.164 50.227 185.655L51.115 186.137C50.874 186.58 50.636 187.032 50.405 187.468C50.174 187.904 49.936 188.355 49.693 188.802L49.692 188.803ZM52.586 183.497L51.724 182.939C52.2918 182.062 52.9378 181.238 53.654 180.477L54.39 181.162C53.7288 181.892 53.1269 182.673 52.59 183.498L52.586 183.497ZM56.547 179.104L55.888 178.343L56.074 178.183C56.745 177.608 57.438 177.013 58.249 176.383L58.883 177.17C57.983 177.87 57.246 178.479 56.547 179.099V179.104ZM61.27 175.372L60.661 174.56C60.967 174.342 61.286 174.109 61.625 173.86H61.631C62.073 173.538 62.575 173.174 63.123 172.785L63.707 173.623C62.779 174.282 61.955 174.867 61.271 175.374L61.27 175.372ZM66.196 171.872L65.612 171.035C66.021 170.741 66.439 170.445 66.844 170.158C67.249 169.871 67.67 169.573 68.075 169.282L68.658 170.12C68.242 170.42 67.817 170.72 67.405 171.012L67.392 171.022C66.998 171.301 66.592 171.589 66.192 171.872H66.196ZM71.144 168.314L70.535 167.503C71.28 166.955 71.965 166.429 72.627 165.92L72.947 165.674L73.582 166.487C72.782 167.087 71.99 167.668 71.145 168.314H71.144ZM75.944 164.531L75.285 163.744C75.991 163.152 76.669 162.544 77.324 161.961L77.545 161.761L78.23 162.497C77.467 163.233 76.698 163.916 75.946 164.528L75.944 164.531ZM80.439 160.392L79.704 159.682C80.492 158.866 81.156 158.144 81.735 157.473L82.496 158.133C81.79 158.953 81.118 159.691 80.44 160.392H80.439ZM84.4 155.72L83.588 155.136C84.139 154.37 84.701 153.511 85.213 152.648L86.076 153.156C85.5656 154.041 85.0064 154.896 84.401 155.719L84.4 155.72ZM203.71 151.074H203.024V150.058H203.396C204.206 150.058 205.144 150.058 206.02 150.008L206.071 151.023H206.061C205.302 151.049 204.518 151.075 203.708 151.075L203.71 151.074ZM199.978 150.946C199.036 150.898 198.086 150.805 197.078 150.707L196.929 150.692L197.029 149.677C197.886 149.763 198.741 149.83 199.567 149.895L200.025 149.931L199.975 150.945L199.978 150.946ZM209.144 150.794L209.044 149.78C209.968 149.687 210.944 149.546 212.014 149.348L212.192 150.338C211.185 150.543 210.167 150.695 209.144 150.794ZM87.521 150.394L86.582 149.988C86.9896 149.086 87.3455 148.162 87.648 147.22L88.613 147.525C88.242 148.638 87.884 149.576 87.522 150.393L87.521 150.394ZM193.882 150.343C192.871 150.213 191.804 150.026 190.863 149.861L191.039 148.871C192.039 149.046 193.039 149.2 194.01 149.328L193.883 150.342L193.882 150.343ZM215.182 149.709L214.928 148.72C215.928 148.465 216.878 148.128 217.771 147.806L218.126 148.746C217.126 149.123 216.139 149.446 215.182 149.711V149.709ZM187.862 149.328C186.862 149.128 185.862 148.892 184.897 148.669H184.892L185.121 147.679C186.038 147.891 187.076 148.131 188.067 148.313L187.867 149.328H187.862ZM181.92 147.928L181.591 147.842C180.737 147.618 179.854 147.386 178.976 147.116L179.255 146.151L179.581 146.243C180.473 146.496 181.315 146.734 182.174 146.943L181.92 147.932V147.928ZM220.946 147.471L220.489 146.584C221.371 146.128 222.219 145.611 223.028 145.035L223.612 145.873C222.753 146.454 221.864 146.988 220.947 147.473L220.946 147.471ZM176.055 146.252C175.166 145.972 174.155 145.652 173.162 145.313L173.492 144.348C174.452 144.677 175.426 144.985 176.386 145.262L176.056 146.251L176.055 146.252ZM89.423 144.552L88.433 144.324C88.615 143.485 88.792 142.55 88.992 141.379L90.008 141.531C89.843 142.519 89.657 143.567 89.424 144.551L89.423 144.552ZM170.292 144.352C169.353 144.023 168.373 143.662 167.425 143.313L167.779 142.373C168.794 142.757 169.75 143.108 170.623 143.414L170.293 144.352H170.292ZM225.999 143.921L225.314 143.186C226.041 142.514 226.712 141.783 227.32 141.002L228.108 141.637C227.459 142.446 226.755 143.209 226.001 143.921H225.999ZM164.579 142.221L161.761 141.078L162.142 140.138L162.206 140.163C163.106 140.529 164.037 140.907 164.935 141.281L164.58 142.22L164.579 142.221ZM158.942 139.859C157.991 139.448 157.077 139.041 156.149 138.616L156.581 137.702C157.042 137.902 157.512 138.119 157.966 138.324C158.42 138.529 158.891 138.742 159.348 138.945L158.943 139.858L158.942 139.859ZM229.861 139.094L228.999 138.586C229.493 137.73 229.943 136.848 230.345 135.945L231.285 136.352C230.885 137.224 230.419 138.121 229.863 139.093L229.861 139.094ZM90.391 138.51L89.376 138.41V138.404C89.476 137.383 89.576 136.326 89.655 135.389L90.67 135.489C90.602 136.305 90.516 137.205 90.425 138.158L90.391 138.51ZM153.41 137.342C152.522 136.922 151.644 136.484 150.67 135.997L151.126 135.083C152.002 135.533 152.917 135.966 153.802 136.383L153.838 136.4L153.406 137.339L153.41 137.342ZM147.951 134.625C147.63 134.456 147.312 134.287 146.997 134.118C146.397 133.8 145.837 133.5 145.26 133.203L145.743 132.315C146.693 132.831 147.548 133.295 148.409 133.737L147.952 134.624L147.951 134.625ZM232.351 133.432L231.387 133.132C231.687 132.183 231.942 131.218 232.148 130.263L233.139 130.463C232.915 131.553 232.601 132.622 232.352 133.432H232.351ZM90.951 132.467L89.937 132.367C90.077 131.081 90.202 130.142 90.343 129.32L91.334 129.497C91.234 130.145 91.095 131.156 90.953 132.467H90.951ZM142.621 131.706C141.678 131.167 140.828 130.68 139.981 130.183L140.489 129.32C141.303 129.813 142.178 130.314 143.024 130.798L143.104 130.844L142.622 131.706H142.621ZM137.366 128.583C136.554 128.083 135.692 127.526 134.802 126.933L135.361 126.095C135.674 126.295 135.993 126.501 136.301 126.701C136.822 127.038 137.359 127.386 137.901 127.721L137.369 128.583H137.366ZM233.622 127.415L232.607 127.315C232.692 126.415 232.734 125.615 232.734 124.878V124.344L233.75 124.319V124.878C233.75 125.622 233.71 126.428 233.623 127.416L233.622 127.415ZM92.022 126.577L91.058 126.298C91.3497 125.298 91.7295 124.327 92.193 123.394L93.107 123.85C92.6635 124.721 92.2984 125.63 92.016 126.566L92.022 126.577ZM132.266 125.232C131.334 124.601 130.447 123.951 129.778 123.455L130.387 122.642C131.175 123.226 132.026 123.82 132.85 124.394L132.267 125.232H132.266ZM127.366 121.601C126.624 121.016 125.874 120.395 125.005 119.646L125.666 118.885C126.342 119.485 127.077 120.085 127.855 120.716L127.976 120.816L127.367 121.603L127.366 121.601ZM94.739 121.474L93.978 120.814C94.5753 120.133 95.2385 119.512 95.958 118.961L96.288 118.706L96.897 119.519L96.567 119.773C95.8872 120.258 95.2731 120.83 94.74 121.473L94.739 121.474ZM232.476 121.394C232.329 120.415 232.118 119.446 231.844 118.494L232.809 118.214C233.088 119.209 233.317 120.218 233.494 121.236L232.48 121.388L232.476 121.394ZM99.327 117.711L98.743 116.874C99.623 116.242 100.548 115.62 101.257 115.148L101.816 115.986C101.502 116.205 101.183 116.424 100.874 116.635C100.363 116.985 99.836 117.346 99.328 117.711H99.327ZM122.738 117.559C122.023 116.844 121.273 116.075 120.631 115.3L121.418 114.64C122.027 115.383 122.754 116.128 123.449 116.823L122.739 117.558L122.738 117.559ZM230.8 115.705C230.394 114.802 229.927 113.929 229.4 113.091L230.264 112.557C230.807 113.438 231.29 114.354 231.711 115.299L230.798 115.704L230.8 115.705ZM104.355 114.385L103.823 113.523C104.679 112.995 105.573 112.483 106.438 111.989L106.463 111.974L106.971 112.863C106.055 113.386 105.155 113.916 104.361 114.383L104.355 114.385ZM118.803 112.785C118.536 112.345 118.298 111.887 118.092 111.415C117.87 110.888 117.685 110.374 117.533 109.942L118.498 109.613L118.54 109.727C118.701 110.163 118.868 110.614 119.032 111.034C119.218 111.461 119.43 111.877 119.666 112.279L118.804 112.786L118.803 112.785ZM109.611 111.44L109.154 110.552C110.015 110.11 110.854 109.688 111.871 109.181L112.303 110.095C111.442 110.512 110.537 110.964 109.612 111.44H109.611ZM227.703 110.653C227.084 109.881 226.424 109.144 225.724 108.445L226.435 107.734C227.167 108.461 227.854 109.233 228.492 110.044L227.705 110.653H227.703ZM115.044 108.824L114.638 107.885C115.409 107.537 116.193 107.208 116.951 106.89L117 106.869L116.695 106.945C116.505 106.045 116.295 104.992 116.162 103.924L117.177 103.797C117.331 104.826 117.51 105.817 117.711 106.743L117.482 106.793L117.837 107.656L117.77 107.683C116.87 108.049 115.937 108.428 115.044 108.824ZM120.655 106.564L120.3 105.6C121.264 105.235 122.275 104.89 123.167 104.586L123.499 105.55L123.441 105.57C122.511 105.888 121.551 106.217 120.656 106.565L120.655 106.564ZM223.487 106.464C222.77 105.89 221.959 105.301 221.076 104.713L221.635 103.875C222.552 104.495 223.388 105.11 224.123 105.703L223.489 106.464H223.487ZM126.368 104.636L126.068 103.672C126.868 103.42 127.691 103.183 128.487 102.953L128.987 102.808L129.266 103.798C128.173 104.086 127.226 104.359 126.373 104.636H126.368ZM218.536 103.164C217.7 102.721 216.795 102.255 215.845 101.844L216.252 100.93C217.36 101.44 218.231 101.876 218.994 102.302L218.537 103.164H218.536ZM132.182 103.012L131.928 102.022C132.758 101.804 133.635 101.602 134.482 101.407L134.899 101.307L135.128 102.298L135.035 102.319C134.093 102.537 133.118 102.762 132.183 103.008L132.182 103.012ZM138.076 101.693L137.876 100.702C138.91 100.491 139.927 100.309 140.876 100.144L141.053 101.134C140.064 101.286 139.059 101.492 138.087 101.692L138.076 101.693ZM115.831 100.879C115.755 99.924 115.704 98.899 115.679 97.833L116.694 97.808C116.719 98.852 116.77 99.859 116.846 100.808L115.832 100.884L115.831 100.879ZM213.077 100.701C211.966 100.301 211.063 100.001 210.234 99.762L210.514 98.797L210.554 98.809C211.514 99.109 212.507 99.409 213.433 99.761L213.078 100.7L213.077 100.701ZM144.044 100.624L143.892 99.609C144.663 99.491 145.464 99.37 146.24 99.253L146.283 99.246L146.913 99.151L147.066 100.167C146.785 100.208 146.505 100.248 146.227 100.286C145.467 100.393 144.748 100.494 144.045 100.624H144.044ZM150.036 99.786L149.909 98.771C150.432 98.704 150.97 98.643 151.491 98.584C151.964 98.53 152.451 98.475 152.93 98.415L153.03 99.431C152.019 99.531 151.016 99.661 150.046 99.785H150.034L150.036 99.786ZM156.053 99.125L155.953 98.111C156.977 98.006 158.038 97.927 158.974 97.857L159.05 98.872C158.14 98.963 157.234 99.034 156.358 99.102L156.058 99.126L156.053 99.125ZM207.314 98.994C206.391 98.775 205.4 98.57 204.37 98.385L204.547 97.395C205.625 97.583 206.632 97.789 207.547 98.004L207.319 98.993L207.314 98.994ZM162.093 98.664L162.017 97.65C163.004 97.576 164.004 97.525 164.972 97.476H165.064L165.114 98.492H165.064C164.095 98.541 163.094 98.592 162.093 98.667V98.664ZM168.136 98.309L168.086 97.295C169.273 97.235 170.186 97.195 171.132 97.168L171.183 98.183C170.67 98.209 170.148 98.229 169.643 98.247H169.633C169.141 98.265 168.633 98.284 168.133 98.309H168.136ZM174.205 98.055L174.155 97.041C175.171 96.99 176.203 96.964 177.2 96.941L177.226 97.956C176.748 97.969 176.257 97.987 175.782 98.005C175.265 98.024 174.732 98.045 174.206 98.058L174.205 98.055ZM201.398 97.928C200.456 97.804 199.448 97.702 198.398 97.628L198.474 96.612C199.195 96.666 199.932 96.746 200.645 96.824H200.667C200.955 96.855 201.24 96.886 201.522 96.915L201.395 97.929L201.398 97.928ZM180.273 97.828L180.247 96.814C181.274 96.789 182.287 96.737 183.266 96.687L183.319 97.702L183.207 97.709C182.307 97.754 181.281 97.809 180.274 97.829L180.273 97.828ZM186.341 97.599L186.291 96.585C186.823 96.563 187.485 96.537 188.119 96.485C188.519 96.46 188.931 96.435 189.338 96.435L189.389 97.45C189.189 97.462 188.989 97.469 188.804 97.475C188.619 97.481 188.404 97.488 188.195 97.501C187.504 97.528 186.929 97.553 186.342 97.601L186.341 97.599ZM195.406 97.447C194.458 97.422 193.479 97.397 192.487 97.397H192.387V96.383H192.487C193.469 96.383 194.453 96.409 195.404 96.434H195.432L195.407 97.448L195.406 97.447ZM116.669 94.784H115.654C115.654 93.947 115.674 93.091 115.696 92.099V92.094L115.704 91.738L116.719 91.763C116.707 92.287 116.701 92.786 116.695 93.269V93.283C116.688 93.805 116.682 94.299 116.669 94.783V94.784ZM116.846 88.715L115.832 88.665V88.582C115.857 87.882 115.882 87.165 115.932 86.455L115.957 85.643L116.973 85.693L116.947 86.506C116.898 87.216 116.873 87.938 116.847 88.636V88.713L116.846 88.715ZM117.101 82.647L116.086 82.621C116.137 81.506 116.162 80.521 116.162 79.6L117.177 79.625C117.177 80.192 117.157 80.792 117.137 81.425V81.437C117.124 81.825 117.111 82.225 117.102 82.645L117.101 82.647ZM116.161 76.578C116.135 75.451 116.109 74.515 116.034 73.578L117.049 73.502C117.105 74.55 117.149 75.502 117.176 76.549L116.162 76.574L116.161 76.578ZM115.754 70.586C115.619 69.6039 115.433 68.6295 115.196 67.667L116.186 67.413C116.432 68.424 116.628 69.44 116.77 70.434L115.755 70.586H115.754ZM114.282 64.848C113.908 63.944 113.449 63.0775 112.912 62.26L113.75 61.701C114.326 62.5755 114.819 63.5018 115.222 64.468L114.283 64.848H114.282ZM58.044 60.912H57.714C56.78 60.912 55.857 60.887 54.972 60.836L55.023 59.82C55.884 59.871 56.764 59.896 57.714 59.896H58.044V60.91V60.912ZM61.117 60.812L61.064 59.794C61.939 59.748 62.828 59.661 63.77 59.569L64.06 59.541L64.16 60.556L63.85 60.586C62.889 60.678 61.984 60.765 61.115 60.811L61.117 60.812ZM51.925 60.507C50.9078 60.3603 49.8995 60.157 48.905 59.898L49.159 58.908C50.149 59.149 51.131 59.346 52.079 59.492L51.927 60.506L51.925 60.507ZM67.185 60.177L67.058 59.163C67.93 59.045 68.91 58.896 70.058 58.706L70.21 59.696C69.228 59.879 68.24 60.036 67.19 60.178L67.185 60.177ZM111.035 60.077C110.311 59.4343 109.52 58.8726 108.674 58.402L109.156 57.514C110.079 58.0105 110.94 58.6147 111.721 59.314L111.036 60.075L111.035 60.077ZM73.177 59.214L73 58.225L74.485 57.958L75.97 57.691L76.148 58.682C75.059 58.882 74.087 59.056 73.178 59.215L73.177 59.214ZM45.933 58.985C44.9693 58.6183 44.0283 58.1946 43.115 57.716L43.597 56.827C44.4702 57.2847 45.369 57.6917 46.289 58.046L45.934 58.985H45.933ZM79.169 58.122L78.992 57.133L80.513 56.862H80.519L81.989 56.6L82.166 57.591C81.284 57.745 80.408 57.902 79.56 58.054H79.553L79.171 58.123L79.169 58.122ZM105.957 57.284C105.008 56.9879 104.041 56.7505 103.063 56.573L103.241 55.583C104.255 55.7767 105.257 56.0308 106.241 56.344L105.962 57.283L105.957 57.284ZM85.136 57.084L84.984 56.07C85.604 55.97 86.2 55.88 86.776 55.796H86.786C87.207 55.735 87.604 55.677 88.005 55.614L88.132 56.63C87.075 56.769 86.025 56.939 85.132 57.086L85.136 57.084ZM91.128 56.297L91.028 55.282C92.106 55.182 93.128 55.104 94.075 55.053L94.126 56.069C93.184 56.118 92.205 56.193 91.126 56.298L91.128 56.297ZM100.116 56.145C99.15 56.068 98.17 56.018 97.116 55.992V54.971C98.1423 54.9687 99.1679 55.0195 100.189 55.123L100.113 56.138L100.116 56.145ZM40.473 56.119C39.631 55.549 38.802 54.926 38.011 54.266L38.671 53.478C39.4347 54.1192 40.2315 54.72 41.058 55.278L40.475 56.115L40.473 56.119ZM35.773 52.133C35.0716 51.38 34.419 50.583 33.819 49.747L34.657 49.163C35.2255 49.9704 35.8536 50.7342 36.536 51.448L35.774 52.133H35.773ZM32.168 47.106C31.6822 46.1965 31.2583 45.2554 30.899 44.289L31.864 43.933C32.1964 44.8697 32.6041 45.778 33.083 46.649L32.17 47.106H32.168ZM30.036 41.311C29.8008 40.3078 29.6315 39.2903 29.529 38.265L30.545 38.165C30.6393 39.1481 30.8004 40.1237 31.027 41.085L30.037 41.313L30.036 41.311ZM30.391 35.167H29.377C29.3845 34.1403 29.4436 33.1147 29.554 32.094L30.57 32.221C30.479 33.086 30.42 34.049 30.392 35.166L30.391 35.167Z" fill="#87C0F4"/>
<path d="M4.82397 211.047L5.83997 210.996C5.87445 211.476 5.95108 211.952 6.06897 212.418L5.07897 212.618C4.87497 211.682 4.84897 211.072 4.82397 211.047Z" fill="#87C0F4"/>
<path d="M118.574 67.285C106.894 73.125 105.374 85.82 104.355 93.437C103.336 101.054 99.023 111.465 92.422 117.054C85.821 122.643 80.234 128.731 77.695 142.188C75.156 155.645 78.711 165.04 74.902 177.227C71.093 189.414 59.16 206.172 59.922 219.883C60.684 233.594 72.363 232.071 72.363 232.071H227.246C231.744 219.216 232.099 205.275 228.262 192.208C222.676 173.165 205.918 170.372 201.348 145.489C198.987 132.641 199.317 128.989 189.922 117.052C180.248 104.763 173.672 104.611 169.356 93.439C165.04 82.267 162.501 61.193 136.856 67.539C136.855 67.539 130.254 61.445 118.574 67.285Z" fill="#1F1F39"/>
<path d="M208.939 231.944H169.099L159.199 193.477L201.424 186.799L208.939 231.944Z" fill="#F9D2DD"/>
<path d="M34.278 206.934C26.152 205.407 12.952 197.031 14.473 179.258C15.994 161.485 49.258 109.18 49.258 109.18C49.258 109.18 43.926 103.086 46.211 95.723C48.496 88.36 56.622 86.328 61.952 86.074C65.0344 85.8981 68.1244 86.2416 71.093 87.09L82.773 70.59C82.773 70.59 85.313 67.285 88.36 68.807C91.407 70.329 85.313 80.233 85.313 80.233L79.727 91.66C79.727 91.66 78.711 101.56 76.427 107.148C74.143 112.736 72.872 114.007 72.872 114.007L60.684 154.121L74.652 150.313L61.952 202.871C61.952 202.871 42.403 208.457 34.278 206.934Z" fill="#FFEBF0"/>
<path d="M61.954 202.872L74.649 150.313L62.157 153.713L49.766 205.665C58.323 204.547 61.954 202.872 61.954 202.872Z" fill="#F9ACC0"/>
<path d="M159.199 193.477L162.699 207.137L205.99 214.323L201.424 186.799L159.199 193.477Z" fill="#F9ACC0"/>
<path d="M205.918 206.172C205.918 206.172 200.078 148.535 171.133 139.649C142.188 130.763 122.133 133.555 112.988 136.349C103.843 139.143 64.746 151.582 64.746 151.582L56.367 207.187L78.967 204.902L75.156 232.07H175.246C175.246 232.07 173.164 216.07 170.625 206.17L205.918 206.172Z" fill="#3D5CFF"/>
<path d="M205.918 206.172C205.918 206.172 200.078 148.535 171.133 139.649C142.188 130.763 122.133 133.555 112.988 136.349C103.843 139.143 64.746 151.582 64.746 151.582L56.367 207.187L78.967 204.902L75.156 232.07H175.246C175.246 232.07 173.164 216.07 170.625 206.17L205.918 206.172Z" fill="#3D5CFF"/>
<path d="M200.357 181.949C196.473 177.58 186.139 167.4 173.723 166.816C163.465 166.334 160.923 160.037 158.666 154.502C157.219 150.947 155.873 147.57 152.75 145.666C147.088 142.213 141.273 144.066 133.961 146.402C130.568 147.556 127.109 148.505 123.602 149.246C117.025 150.541 113.014 147.57 110.779 144.853C109.294 143.002 108.182 140.881 107.504 138.607C107.486 138.544 107.481 138.477 107.489 138.412C107.497 138.347 107.519 138.284 107.552 138.227C107.585 138.17 107.629 138.12 107.682 138.081C107.735 138.042 107.795 138.014 107.859 137.998C107.922 137.98 107.989 137.975 108.054 137.983C108.12 137.991 108.183 138.012 108.24 138.045C108.297 138.079 108.346 138.123 108.386 138.176C108.425 138.229 108.453 138.289 108.469 138.353C109.112 140.49 110.165 142.482 111.569 144.218C114.569 147.849 118.526 149.195 123.401 148.255C126.868 147.505 130.292 146.564 133.656 145.437C140.943 143.101 147.24 141.095 153.286 144.802C156.686 146.884 158.186 150.566 159.634 154.12C161.868 159.655 164.179 165.368 173.802 165.8C186.596 166.38 197.186 176.82 201.144 181.263C201.189 181.312 201.223 181.37 201.245 181.433C201.267 181.496 201.276 181.563 201.271 181.629C201.266 181.696 201.248 181.761 201.217 181.82C201.187 181.879 201.144 181.932 201.093 181.974C200.994 182.062 200.87 182.115 200.738 182.126C200.665 182.129 200.592 182.115 200.526 182.084C200.46 182.053 200.402 182.007 200.357 181.949Z" fill="#EAEAFF"/>
<path d="M124.871 227.525C124.414 215.845 118.371 214.144 111.389 212.189C108.139 211.275 104.762 210.335 101.842 208.279C95.418 203.785 96.18 199.037 97.069 193.527C97.6008 190.724 97.8307 187.873 97.755 185.021C97.323 176.896 90.773 174.712 81.734 171.721C80.034 171.162 78.255 170.553 76.427 169.893C71.576 168.136 68.986 164.074 68.934 158.183C68.9425 155.353 69.3971 152.543 70.281 149.855L71.246 150.185C70.3902 152.765 69.953 155.466 69.951 158.185C70.027 163.669 72.312 167.3 76.781 168.925C78.581 169.585 80.361 170.169 82.062 170.725C91.152 173.746 98.312 176.133 98.794 184.944C98.884 187.863 98.654 190.784 98.108 193.653C97.219 199.239 96.585 203.301 102.475 207.415C105.268 209.37 108.543 210.284 111.717 211.173C118.777 213.155 125.455 215.007 125.934 227.449C125.983 228.928 126.119 230.403 126.34 231.867L125.274 232.045C125.053 230.547 124.918 229.038 124.871 227.525Z" fill="#EAEAFF"/>
<path d="M148.281 182.381C147.088 182.203 145.869 182 144.523 181.772C137.414 180.502 136.449 175.881 135.433 171.006C134.962 167.862 133.894 164.836 132.285 162.094C129.264 157.448 124.16 158.615 117.101 160.24C112.556 161.281 107.427 162.449 101.714 162.297C98.8174 162.285 95.9852 161.441 93.5545 159.866C91.1239 158.29 89.1973 156.049 88.004 153.41C86.6875 150.746 85.87 147.863 85.592 144.904L86.608 144.828C86.8975 147.662 87.6885 150.421 88.944 152.978C91.635 158.335 95.952 161.128 101.766 161.278C107.352 161.43 112.405 160.262 116.899 159.247C124.085 157.597 129.747 156.302 133.174 161.532C134.856 164.373 135.977 167.51 136.474 170.774C137.515 175.7 138.328 179.61 144.751 180.753C146.071 180.982 147.29 181.185 148.483 181.362C155.415 182.454 160.01 183.162 166.434 190.071L165.647 190.782C159.453 184.128 155.01 183.447 148.281 182.381Z" fill="#EAEAFF"/>
<path d="M109.18 94.961C105.625 98.008 107.656 104.355 112.48 106.133C117.304 107.911 118.574 106.641 118.574 106.641L116.289 94.453C115.215 93.738 113.934 93.3999 112.648 93.4918C111.361 93.5838 110.141 94.1006 109.18 94.961Z" fill="#F9ACC0"/>
<path d="M117.812 111.465C118.632 113.329 119.819 115.009 121.302 116.404C122.786 117.8 124.535 118.883 126.445 119.588C126.719 122.644 126.548 125.723 125.937 128.729C125.442 131.176 124.676 133.561 123.655 135.84C123.655 135.84 125.178 139.14 135.843 139.649C146.508 140.158 148.031 135.84 148.031 135.84C147.321 131.817 146.981 127.738 147.015 123.653C147.369 119.307 147.963 114.984 148.792 110.704C148.792 110.704 155.647 112.989 159.964 108.673C164.281 104.357 163.264 96.232 157.933 95.724C152.602 95.216 149.805 99.788 149.805 99.788C149.805 99.788 142.187 96.23 139.141 90.388C136.095 84.546 135.841 80.488 135.841 80.488C135.841 80.488 121.113 82.519 116.035 94.453C116.035 94.453 115.019 105.117 117.812 111.465Z" fill="#F9D2DD"/>
<path d="M123.779 101.055C123.293 100.999 122.848 100.755 122.54 100.376C122.231 99.9957 122.084 99.5102 122.129 99.023C122.084 98.536 122.231 98.0507 122.54 97.6711C122.848 97.2915 123.293 97.0477 123.779 96.992C124.265 97.0477 124.71 97.2915 125.018 97.6711C125.327 98.0507 125.474 98.536 125.429 99.023C125.474 99.5102 125.327 99.9957 125.018 100.376C124.71 100.755 124.265 100.999 123.779 101.055Z" fill="#1F1F39"/>
<path d="M136.728 101.817C136.242 101.761 135.797 101.517 135.488 101.138C135.18 100.758 135.033 100.272 135.078 99.785C135.033 99.298 135.18 98.8127 135.489 98.4331C135.797 98.0535 136.242 97.8097 136.728 97.754C137.214 97.8097 137.659 98.0535 137.967 98.4331C138.275 98.8127 138.423 99.298 138.378 99.785C138.423 100.272 138.276 100.758 137.967 101.138C137.659 101.517 137.214 101.761 136.728 101.817Z" fill="#1F1F39"/>
<path d="M134.062 107.148C135.15 106.69 136.175 106.093 137.109 105.371C137.109 105.371 137.617 105.117 137.871 105.371C138.125 105.625 136.5 108.519 135.078 108.926C134.391 109.154 133.649 109.154 132.963 108.925C132.276 108.697 131.682 108.252 131.269 107.658C130.507 106.642 131.523 106.896 131.523 106.896C132.339 107.171 133.207 107.257 134.062 107.148Z" fill="#F95368"/>
<path d="M129.01 99.1C128.7 99.6222 128.445 100.175 128.249 100.75C128.167 101.013 128.133 101.288 128.149 101.563C128.149 101.639 128.174 101.69 128.174 101.741L128.25 101.941C128.307 102.073 128.374 102.2 128.45 102.322C128.63 102.556 128.86 102.746 129.124 102.878C129.388 103.01 129.678 103.081 129.973 103.084C129.66 103.181 129.326 103.19 129.008 103.109C128.669 103.032 128.365 102.845 128.145 102.576C128.031 102.442 127.93 102.298 127.845 102.144L127.745 101.915C127.715 101.842 127.69 101.74 127.665 101.639C127.614 101.291 127.64 100.937 127.741 100.6C127.953 99.98 128.262 99.3972 128.655 98.873C129.051 98.3665 129.502 97.9059 130 97.5L129.01 99.1Z" fill="#1F1F39"/>
<path d="M180.984 206.172C179.791 202.389 175.373 188.906 170.368 180.019C166.711 173.577 162.278 167.609 157.168 162.246C157.168 162.246 163.468 180.476 165.293 186.621C167.093 192.639 171.717 210.945 171.717 210.945C171.362 209.269 171.006 207.645 170.625 206.172H180.984Z" fill="#224BF4"/>
<path d="M136.449 92.879C136.947 92.6941 137.468 92.583 137.998 92.549C138.539 92.5135 139.082 92.5814 139.598 92.749C140.128 92.8979 140.587 93.2309 140.893 93.688C140.427 93.5112 139.94 93.393 139.445 93.336C138.972 93.2898 138.497 93.2815 138.023 93.311C137.539 93.3366 137.057 93.3873 136.578 93.463L135.078 93.692C135.485 93.3444 135.949 93.0693 136.449 92.879Z" fill="#1F1F39"/>
<path d="M121.19 91.279C122.52 91.1164 123.866 91.4196 124.998 92.137C125.281 92.3217 125.537 92.5437 125.76 92.797C125.988 93.0447 126.138 93.3538 126.192 93.686C126.008 93.4379 125.774 93.2305 125.506 93.077C125.243 92.9266 124.972 92.791 124.694 92.671C124.139 92.4505 123.571 92.2638 122.994 92.112C122.409 91.9775 121.814 91.8942 121.215 91.863C120.606 91.863 119.971 91.863 119.336 91.913C119.903 91.5747 120.535 91.3588 121.19 91.279Z" fill="#1F1F39"/>
<path d="M234.098 231.816V232.656H25.898V231.816H234.098Z" fill="#1F1F39"/>
<path d="M67.133 110.653C64.7906 108.458 63.2451 105.545 62.74 102.375C62.359 99.887 62.512 96.358 64.086 94.504C64.2575 94.2776 64.4752 94.0903 64.7247 93.9546C64.9742 93.8189 65.2498 93.7379 65.533 93.717C66.853 93.717 67.333 94.707 68.148 96.358C68.402 96.891 68.707 97.475 69.062 98.158C70.565 100.877 74.826 105.168 74.851 105.217C74.8743 105.24 74.8928 105.268 74.9054 105.298C74.918 105.329 74.9245 105.362 74.9245 105.395C74.9245 105.427 74.918 105.46 74.9054 105.491C74.8928 105.521 74.8743 105.549 74.851 105.572C74.8277 105.595 74.8 105.614 74.7696 105.626C74.7391 105.639 74.7065 105.646 74.6735 105.646C74.6405 105.646 74.6079 105.639 74.5774 105.626C74.547 105.614 74.5193 105.595 74.496 105.572C74.318 105.397 70.129 101.207 68.605 98.417C68.225 97.729 67.945 97.117 67.665 96.586C66.853 94.91 66.473 94.225 65.508 94.225C65.0864 94.2799 64.7034 94.4987 64.442 94.834C63.527 95.901 62.639 98.517 63.197 102.299C63.6956 105.35 65.1858 108.153 67.437 110.272C67.4625 110.293 67.4834 110.32 67.4986 110.349C67.5137 110.379 67.5227 110.411 67.525 110.444C67.5273 110.477 67.523 110.511 67.5121 110.542C67.5013 110.573 67.4843 110.602 67.462 110.627C67.4412 110.654 67.4139 110.675 67.3828 110.688C67.3517 110.701 67.3177 110.706 67.284 110.703C67.2298 110.702 67.1772 110.684 67.133 110.653Z" fill="#1F1F39"/>
<path d="M55.91 101.435C51.975 100.115 51.924 98.236 51.924 98.16C51.922 98.1261 51.9271 98.0922 51.9392 98.0604C51.9512 98.0287 51.9699 97.9999 51.9939 97.9759C52.0179 97.9519 52.0467 97.9332 52.0785 97.9212C52.1102 97.9091 52.1441 97.904 52.178 97.906C52.2454 97.906 52.31 97.9328 52.3576 97.9804C52.4053 98.028 52.432 98.0926 52.432 98.16C52.432 98.185 52.532 99.785 56.063 100.978C57.149 101.327 58.2964 101.441 59.4298 101.314C60.5633 101.187 61.657 100.822 62.639 100.242C62.6674 100.224 62.6991 100.211 62.7323 100.205C62.7655 100.199 62.7996 100.2 62.8326 100.207C62.8656 100.214 62.8969 100.227 62.9247 100.246C62.9525 100.266 62.9762 100.29 62.9945 100.318C63.0128 100.347 63.0254 100.379 63.0315 100.412C63.0375 100.445 63.037 100.479 63.0299 100.512C63.0228 100.545 63.0093 100.576 62.9901 100.604C62.9709 100.632 62.9464 100.656 62.918 100.674C61.5794 101.417 60.0814 101.826 58.551 101.867C57.6535 101.863 56.7622 101.717 55.91 101.435Z" fill="#1F1F39"/>
<path d="M139.648 120.098C135.331 121.202 130.804 121.185 126.496 120.047C126.719 122.954 126.532 125.877 125.938 128.731C125.862 129.086 125.786 129.416 125.709 129.721C129.054 129.77 132.359 128.993 135.332 127.461C141.68 124.16 142.695 119.336 142.695 119.336C141.666 119.533 140.649 119.787 139.648 120.098Z" fill="#F9ACC0"/>
<path d="M47.603 156.584C47.5903 156.518 47.6041 156.449 47.6416 156.393C47.679 156.337 47.737 156.298 47.803 156.284L64.518 152.872C64.5842 152.859 64.6528 152.873 64.7089 152.911C64.7651 152.948 64.8042 153.006 64.818 153.072C64.8307 153.138 64.8168 153.207 64.7794 153.263C64.742 153.319 64.684 153.358 64.618 153.372L47.912 156.787H47.862C47.8014 156.791 47.7415 156.772 47.6938 156.735C47.646 156.697 47.6137 156.644 47.603 156.584Z" fill="#1F1F39"/>
<path d="M131.901 121.24C130.561 121.178 129.232 120.965 127.94 120.605C127.408 120.463 126.884 120.293 126.369 120.098C126.306 120.073 126.255 120.025 126.227 119.963C126.199 119.902 126.195 119.832 126.217 119.768C126.242 119.705 126.29 119.654 126.351 119.626C126.413 119.597 126.483 119.593 126.547 119.615C127.055 119.803 127.572 119.964 128.096 120.098C129.354 120.451 130.649 120.655 131.955 120.707C135.186 120.864 138.419 120.443 141.501 119.463C141.565 119.441 141.635 119.445 141.696 119.473C141.758 119.501 141.806 119.552 141.831 119.615C141.853 119.679 141.849 119.749 141.821 119.81C141.793 119.872 141.742 119.92 141.679 119.945C138.925 120.84 136.044 121.286 133.148 121.265C132.742 121.266 132.311 121.266 131.901 121.24Z" fill="#1F1F39"/>
<path d="M115.654 105.244C115.469 103.755 114.958 102.325 114.156 101.057C112.709 98.414 111.49 97.881 111.49 97.857C111.458 97.8458 111.429 97.8278 111.405 97.8042C111.381 97.7806 111.362 97.752 111.35 97.7204C111.338 97.6888 111.332 97.655 111.335 97.6212C111.337 97.5875 111.347 97.5546 111.363 97.525C111.39 97.4639 111.439 97.4147 111.499 97.3867C111.56 97.3588 111.629 97.3539 111.693 97.373C111.744 97.398 113.065 97.957 114.613 100.775C115.471 102.114 116.001 103.637 116.162 105.219C116.167 105.255 116.163 105.291 116.152 105.325C116.142 105.359 116.123 105.391 116.099 105.417C116.075 105.444 116.046 105.465 116.013 105.479C115.98 105.493 115.944 105.499 115.908 105.498C115.874 105.5 115.84 105.495 115.808 105.483C115.777 105.471 115.748 105.452 115.724 105.428C115.7 105.404 115.681 105.375 115.669 105.344C115.657 105.312 115.652 105.278 115.654 105.244Z" fill="#1F1F39"/>
<path d="M170.173 205.944C169.234 202.744 167.862 197.794 166.542 192.284C164.024 181.746 156.965 162.551 156.889 162.348C156.867 162.284 156.871 162.214 156.899 162.153C156.927 162.091 156.978 162.043 157.041 162.018C157.105 161.996 157.176 161.999 157.238 162.027C157.299 162.056 157.348 162.107 157.373 162.17C157.449 162.37 164.508 181.594 167.021 192.156C168.341 197.666 169.712 202.617 170.626 205.791C170.635 205.822 170.637 205.855 170.633 205.888C170.629 205.92 170.618 205.951 170.601 205.979C170.585 206.007 170.562 206.032 170.536 206.051C170.51 206.07 170.48 206.084 170.448 206.091C170.473 206.091 170.448 206.116 170.423 206.116C170.37 206.112 170.319 206.093 170.275 206.063C170.231 206.033 170.196 205.992 170.173 205.944Z" fill="#1F1F39"/>
<path d="M96.738 43.672C96.7214 43.8409 96.7214 44.0111 96.738 44.18V43.672Z" fill="#EAEAFF"/>
<path d="M90.12 55.557C90.023 55.5569 89.9263 55.5478 89.831 55.53H89.429C89.2551 55.5319 89.0826 55.499 88.9216 55.4333C88.7606 55.3677 88.6144 55.2705 88.4914 55.1476C88.3685 55.0246 88.2713 54.8784 88.2057 54.7174C88.14 54.5564 88.1071 54.3839 88.109 54.21V45.043H80.26C79.5728 45.0442 78.8921 44.9097 78.257 44.6473C77.6219 44.3849 77.0448 43.9998 76.5588 43.5139C76.0729 43.028 75.6876 42.451 75.4251 41.8159C75.1625 41.1808 75.0279 40.5002 75.029 39.813V24.604C75.0279 23.9168 75.1625 23.2361 75.425 22.6009C75.6875 21.9658 76.0728 21.3887 76.5588 20.9028C77.0447 20.4168 77.6218 20.0316 78.2569 19.769C78.8921 19.5065 79.5728 19.372 80.26 19.373H114.229C115.618 19.3743 116.951 19.9251 117.935 20.9051C118.92 21.8851 119.477 23.2148 119.485 24.604V39.838C119.486 40.5252 119.351 41.2057 119.089 41.8408C118.826 42.4758 118.441 43.0527 117.955 43.5386C117.469 44.0244 116.892 44.4096 116.257 44.6721C115.622 44.9345 114.941 45.0691 114.254 45.068H101.791L91.029 55.199C90.9091 55.3165 90.7669 55.4087 90.6108 55.4702C90.4547 55.5317 90.2878 55.5612 90.12 55.557ZM88.355 24.591C88.1021 24.5888 87.8494 24.6015 87.598 24.629C87.3636 25.2791 87.258 25.9686 87.287 26.659C87.3562 28.6211 87.8983 30.5374 88.867 32.245C90.6169 35.2788 93.2842 37.6793 96.485 39.101C101.717 38.34 105.279 36.578 107.073 33.863C108.137 32.2687 108.53 30.3189 108.165 28.437C107.614 28.2946 107.045 28.2274 106.476 28.237C104.616 28.254 102.808 28.8572 101.31 29.961C98.029 32.295 97.356 34.304 97.246 35.293C97.1479 32.5621 96.2665 29.917 94.707 27.673C93.9737 26.6868 93.0136 25.8918 91.9079 25.3553C90.8022 24.8188 89.5835 24.5566 88.355 24.591Z" fill="white"/>
<path d="M101.562 34.531C104.609 31.992 106.894 29.707 106.894 29.707C105.446 30.3931 104.083 31.2451 102.832 32.246C100.583 34.2251 98.4631 36.3454 96.484 38.594C96.484 38.594 98.515 37.07 101.562 34.531Z" fill="white"/>
<path d="M92.168 32.246C93.3136 34.5471 94.7654 36.6825 96.484 38.594C96.484 38.594 95.214 35.801 93.691 32.754C92.5399 30.5945 91.1794 28.5533 89.629 26.66C89.629 26.66 89.883 27.93 92.168 32.246Z" fill="white"/>
<path d="M203.039 96.918C202.873 96.9209 202.708 96.8909 202.553 96.8296C202.399 96.7684 202.258 96.677 202.139 96.561L191.372 86.43H178.903C178.216 86.4311 177.535 86.2965 176.9 86.034C176.265 85.7715 175.688 85.3862 175.202 84.9002C174.716 84.4143 174.331 83.8372 174.068 83.2021C173.806 82.5669 173.671 81.8862 173.672 81.199V65.991C173.671 65.3038 173.806 64.6231 174.068 63.9879C174.331 63.3528 174.716 62.7757 175.202 62.2898C175.688 61.8038 176.265 61.4186 176.9 61.156C177.535 60.8935 178.216 60.7589 178.903 60.76H212.872C214.256 60.7599 215.585 61.306 216.569 62.2796C217.553 63.2532 218.113 64.5757 218.128 65.96V81.174C218.129 81.8612 217.994 82.5418 217.732 83.1769C217.469 83.812 217.084 84.389 216.598 84.8749C216.112 85.3609 215.535 85.7461 214.9 86.0087C214.265 86.2712 213.584 86.4059 212.897 86.405H205.055V95.57C205.057 95.7439 205.024 95.9164 204.958 96.0774C204.893 96.2383 204.796 96.3846 204.673 96.5076C204.55 96.6305 204.403 96.7277 204.242 96.7933C204.081 96.859 203.909 96.8919 203.735 96.89H203.328C203.233 96.9083 203.136 96.9176 203.039 96.918ZM202.195 66.724C202.088 66.7242 201.982 66.7425 201.881 66.778L197.107 68.403C196.93 68.4682 196.777 68.5857 196.668 68.7398C196.56 68.8939 196.5 69.0774 196.498 69.266V79.854C196.494 79.9064 196.503 79.959 196.524 80.007C196.555 80.0944 196.611 80.1701 196.687 80.2238C196.762 80.2776 196.852 80.3066 196.945 80.307C196.992 80.3071 197.038 80.2997 197.082 80.285L202.49 78.431C202.683 78.3642 202.849 78.2366 202.964 78.0673C203.078 77.898 203.135 77.6961 203.125 77.492V67.667C203.121 67.5671 203.104 67.468 203.076 67.372V67.362C203.017 67.1754 202.899 67.0127 202.741 66.8979C202.582 66.783 202.391 66.7221 202.195 66.724ZM189.595 66.724C189.343 66.73 189.104 66.8344 188.928 67.0148C188.752 67.1952 188.654 67.4372 188.655 67.689V77.515C188.654 77.711 188.715 77.9023 188.829 78.0617C188.943 78.2211 189.104 78.3405 189.29 78.403L194.695 80.26C194.734 80.2802 194.778 80.2889 194.822 80.285C194.881 80.288 194.939 80.279 194.995 80.2587C195.05 80.2383 195.1 80.207 195.143 80.1667C195.186 80.1263 195.22 80.0777 195.243 80.0238C195.266 79.9699 195.279 79.9118 195.279 79.853V69.266C195.277 69.0776 195.218 68.8943 195.11 68.7402C195.001 68.5861 194.849 68.4685 194.672 68.403L189.896 66.777C189.797 66.7481 189.695 66.7313 189.592 66.727L189.595 66.724Z" fill="white"/>
<path d="M143.33 107.91C140.596 107.91 138.379 106.546 138.379 104.863C138.379 103.18 140.596 101.816 143.33 101.816C146.064 101.816 148.279 103.18 148.279 104.863C148.279 106.546 146.065 107.91 143.33 107.91Z" fill="#F9ACC0"/>
<path d="M115.984 102.705C116.079 104.256 116.274 105.8 116.568 107.326C117.483 107.717 118.468 107.916 119.463 107.91C122.205 107.91 124.414 106.539 124.414 104.863C124.414 103.187 122.205 101.816 119.463 101.816C118.243 101.785 117.039 102.093 115.984 102.705V102.705Z" fill="#F9ACC0"/>
<path d="M148.764 110.906C148.778 110.84 148.787 110.773 148.789 110.706C149.904 111.04 151.055 111.236 152.217 111.29C152.192 111.112 152.141 110.935 152.09 110.706C151.075 107.656 154.375 101.816 154.375 101.816C154.375 101.816 150.821 102.578 149.297 107.656C148.969 108.709 148.79 109.803 148.764 110.906V110.906Z" fill="#F9ACC0"/>
<path d="M148.84 108.52C148.808 108.509 148.779 108.491 148.754 108.468C148.729 108.445 148.709 108.418 148.695 108.387C148.68 108.356 148.673 108.323 148.671 108.289C148.67 108.255 148.676 108.222 148.688 108.19C149.269 106.713 150.046 105.321 150.998 104.051C151.994 102.546 153.335 101.302 154.909 100.42C154.967 100.395 155.032 100.391 155.092 100.41C155.153 100.428 155.205 100.467 155.239 100.52C155.264 100.578 155.268 100.643 155.249 100.703C155.231 100.764 155.192 100.816 155.139 100.85C153.648 101.704 152.378 102.896 151.43 104.33C150.522 105.565 149.764 106.903 149.172 108.316C149.16 108.376 149.128 108.431 149.083 108.472C149.037 108.513 148.979 108.539 148.918 108.545C148.904 108.547 148.89 108.546 148.876 108.542C148.863 108.537 148.85 108.53 148.84 108.52Z" fill="#1F1F39"/>
<path d="M85.592 174.18C85.592 174.18 82.52 185.885 75.41 195.28C70.484 201.805 61.775 205.512 56.875 207.162L78.787 204.928L85.592 174.18Z" fill="#224BF4"/>
<path d="M78.94 205.157C78.8766 205.142 78.8199 205.106 78.7786 205.055C78.7372 205.005 78.7135 204.942 78.711 204.877C78.711 204.801 79.752 196.65 81.504 188.856C83.256 181.062 87.318 167.147 87.344 166.995C87.3651 166.933 87.4073 166.881 87.4631 166.848C87.5189 166.814 87.5847 166.802 87.649 166.812C87.7087 166.834 87.759 166.876 87.7914 166.93C87.8238 166.985 87.8364 167.049 87.827 167.112C87.775 167.249 83.738 181.163 81.986 188.932C80.234 196.701 79.219 204.827 79.193 204.903C79.1957 204.935 79.1919 204.967 79.1817 204.998C79.1715 205.028 79.1551 205.056 79.1337 205.08C79.1122 205.104 79.086 205.123 79.0569 205.136C79.0277 205.149 78.9961 205.156 78.964 205.157H78.94Z" fill="#1F1F39"/>
</svg>
