<svg width="9" height="10" viewBox="0 0 9 10" fill="none" xmlns="http://www.w3.org/2000/svg">
<path d="M8.5 10H1C0.867392 10 0.740215 9.94732 0.646447 9.85355C0.552678 9.75979 0.5 9.63261 0.5 9.5V9.178C0.5 8.632 0.5 8.2 0.529 7.845C0.543889 7.50529 0.626864 7.17203 0.773 6.865C1.01144 6.39401 1.39401 6.01144 1.865 5.773C2.17201 5.62681 2.50528 5.54384 2.845 5.529C3.2 5.5 3.632 5.5 4.178 5.5H5.321C5.868 5.5 6.3 5.5 6.654 5.529C6.99405 5.54378 7.32765 5.62676 7.635 5.773C8.10599 6.01179 8.48878 6.39423 8.728 6.865C8.87343 7.17223 8.95605 7.50541 8.971 7.845C9 8.2 9 8.631 9 9.178V9.5C9 9.63261 8.94732 9.75979 8.85355 9.85355C8.75979 9.94732 8.63261 10 8.5 10ZM7.845 7.336C7.92332 7.5236 7.96702 7.72383 7.974 7.927C7.96705 7.72383 7.92334 7.52359 7.845 7.336ZM2.3 6.676C2.02838 6.82045 1.80774 7.04493 1.668 7.319C1.80774 7.04493 2.02838 6.82045 2.3 6.676ZM4.2 6.5C3.609 6.5 3.231 6.5 2.927 6.526C3.231 6.5 3.609 6.5 4.2 6.5ZM4.75 4.5C4.30499 4.5 3.86998 4.36804 3.49997 4.12081C3.12996 3.87357 2.84157 3.52217 2.67127 3.11104C2.50097 2.6999 2.45642 2.2475 2.54323 1.81105C2.63005 1.37459 2.84434 0.973679 3.15901 0.659011C3.47368 0.344343 3.87459 0.130051 4.31105 0.0432341C4.7475 -0.0435826 5.1999 0.000974894 5.61104 0.171272C6.02217 0.341569 6.37357 0.629957 6.62081 0.999968C6.86804 1.36998 7 1.80499 7 2.25C6.99921 2.84649 6.7619 3.41833 6.34011 3.84011C5.91833 4.2619 5.34649 4.49921 4.75 4.5ZM4.75 1C4.41933 1.00053 4.1023 1.13184 3.86811 1.36528C3.63392 1.59873 3.50158 1.91534 3.5 2.246C3.50158 1.91534 3.63392 1.59873 3.86811 1.36528C4.1023 1.13184 4.41933 1.00053 4.75 1ZM4.75 1C5.03758 1.00082 5.31602 1.10116 5.538 1.284C5.31737 1.10152 5.04031 1.00116 4.754 1H4.75Z" fill="#B8B8D2"/>
</svg>
